<?xml version="1.0" encoding="UTF-8" standalone="no"?>
<svg width="945px" height="945px" viewBox="0 0 945 945" version="1.1" xmlns="http://www.w3.org/2000/svg" xmlns:xlink="http://www.w3.org/1999/xlink" xmlns:sketch="http://www.bohemiancoding.com/sketch/ns">
    <!-- Generator: Sketch 3.2.2 (9983) - http://www.bohemiancoding.com/sketch -->
    <title>header</title>
    <desc>Created with Sketch.</desc>
    <defs></defs>
    <g id="Page-1" stroke="none" stroke-width="1" fill="none" fill-rule="evenodd" sketch:type="MSPage">
        <g id="header" sketch:type="MSArtboardGroup" fill="#FFFFFF">
            <g id="Group" sketch:type="MSLayerGroup" transform="translate(-450.000000, -450.000000)">
                <g id="Group-3" sketch:type="MSShapeGroup">
                    <g id="Rectangle-path-+-Shape" transform="translate(314.718577, 629.095459)">
                        <rect id="Rectangle-path" fill-opacity="0.25" x="0" y="0" width="584.477358" height="269.102433"></rect>
                        <path d="M584.477358,269.102433 L449.317534,134.551217 L135.160577,134.551217 L0,0 L584.477358,0 L584.477358,269.102433 L584.477358,269.102433 Z" id="Shape" opacity="0.25"></path>
                    </g>
                    <g id="Rectangle-path-+-Shape" transform="translate(629.437155, 0.094891)">
                        <rect id="Rectangle-path" fill-opacity="0.25" x="0" y="1.09489051" width="269.758781" height="583.055272"></rect>
                        <path d="M0,1.09489051 L134.879767,135.925763 L134.879767,449.318537 L269.758781,584.150163 L269.758781,1.09489051 L0,1.09489051 L0,1.09489051 Z" id="Shape" opacity="0.25"></path>
                    </g>
                    <g id="Rectangle-path-+-Shape" transform="translate(314.718577, 314.047729)">
                        <rect id="Rectangle-path" fill-opacity="0.25" x="0" y="1.09489051" width="269.758781" height="269.102433"></rect>
                        <path d="M269.758781,270.197324 L0,1.09489051 L269.758781,1.09489051 L269.758781,270.197324 L269.758781,270.197324 Z" id="Shape" opacity="0.25"></path>
                    </g>
                </g>
                <g id="Group-3" transform="translate(0.000000, 945.000000)" sketch:type="MSShapeGroup">
                    <g id="Rectangle-path-+-Shape" transform="translate(629.437155, 0.094891)">
                        <rect id="Rectangle-path" fill-opacity="0.25" x="0" y="1.09489051" width="269.758781" height="583.055272"></rect>
                        <path d="M0,1.09489051 L134.879767,135.925763 L134.879767,449.318537 L269.758781,584.150163 L269.758781,1.09489051 L0,1.09489051 L0,1.09489051 Z" id="Shape" opacity="0.25"></path>
                    </g>
                    <g id="Rectangle-path-+-Shape" transform="translate(0.000000, 0.094891)">
                        <rect id="Rectangle-path" fill-opacity="0.25" x="0" y="1.09489051" width="584.477358" height="269.102433"></rect>
                        <path d="M584.477358,270.197324 L449.31736,135.646107 L135.160751,135.646107 L0,1.09489051 L584.477358,1.09489051 L584.477358,270.197324 L584.477358,270.197324 Z" id="Shape" opacity="0.25"></path>
                    </g>
                    <g id="Rectangle-path-+-Shape" transform="translate(314.718577, 314.047729)">
                        <rect id="Rectangle-path" fill-opacity="0.25" x="0" y="1.09489051" width="269.758781" height="269.102433"></rect>
                        <path d="M269.758781,270.197324 L0,1.09489051 L269.758781,1.09489051 L269.758781,270.197324 L269.758781,270.197324 Z" id="Shape" opacity="0.25"></path>
                    </g>
                </g>
                <g id="Group-3" transform="translate(945.000000, 0.000000)" sketch:type="MSShapeGroup">
                    <g id="Rectangle-path-+-Shape" transform="translate(314.718577, 629.095459)">
                        <rect id="Rectangle-path" fill-opacity="0.25" x="0" y="0" width="584.477358" height="269.102433"></rect>
                        <path d="M584.477358,269.102433 L449.317534,134.551217 L135.160577,134.551217 L0,0 L584.477358,0 L584.477358,269.102433 L584.477358,269.102433 Z" id="Shape" opacity="0.25"></path>
                    </g>
                    <g id="Rectangle-path-+-Shape" transform="translate(0.000000, 315.142620)">
                        <rect id="Rectangle-path" fill-opacity="0.25" x="0" y="0" width="269.758781" height="583.055272"></rect>
                        <path d="M0,0 L134.879767,134.831271 L134.879767,448.224002 L269.758781,583.055272 L269.758781,0 L0,0 L0,0 Z" id="Shape" opacity="0.25"></path>
                    </g>
                    <g id="Rectangle-path-+-Shape" transform="translate(314.718577, 314.047729)">
                        <rect id="Rectangle-path" fill-opacity="0.25" x="0" y="1.09489051" width="269.758781" height="269.102433"></rect>
                        <path d="M269.758781,270.197324 L0,1.09489051 L269.758781,1.09489051 L269.758781,270.197324 L269.758781,270.197324 Z" id="Shape" opacity="0.25"></path>
                    </g>
                </g>
                <g id="Group-3" transform="translate(945.000000, 945.000000)" sketch:type="MSShapeGroup">
                    <g id="Rectangle-path-+-Shape" transform="translate(0.000000, 315.142620)">
                        <rect id="Rectangle-path" fill-opacity="0.25" x="0" y="0" width="269.758781" height="583.055272"></rect>
                        <path d="M0,0 L134.879767,134.831271 L134.879767,448.224002 L269.758781,583.055272 L269.758781,0 L0,0 L0,0 Z" id="Shape" opacity="0.25"></path>
                    </g>
                    <g id="Rectangle-path-+-Shape" transform="translate(0.000000, 0.094891)">
                        <rect id="Rectangle-path" fill-opacity="0.25" x="0" y="1.09489051" width="584.477358" height="269.102433"></rect>
                        <path d="M584.477358,270.197324 L449.31736,135.646107 L135.160751,135.646107 L0,1.09489051 L584.477358,1.09489051 L584.477358,270.197324 L584.477358,270.197324 Z" id="Shape" opacity="0.25"></path>
                    </g>
                    <g id="Rectangle-path-+-Shape" transform="translate(314.718577, 314.047729)">
                        <rect id="Rectangle-path" fill-opacity="0.25" x="0" y="1.09489051" width="269.758781" height="269.102433"></rect>
                        <path d="M269.758781,270.197324 L0,1.09489051 L269.758781,1.09489051 L269.758781,270.197324 L269.758781,270.197324 Z" id="Shape" opacity="0.25"></path>
                    </g>
                </g>
            </g>
        </g>
    </g>
</svg>