<svg width="945" height="945" xmlns="http://www.w3.org/2000/svg"><title>header</title><g fill="#FFF" fill-rule="evenodd"><path fill-opacity=".25" d="M-135.28 179.095h584.476v269.102H-135.28z"/><path d="M449.196 448.198l-135.16-134.55H-.12l-135.16-134.553h584.476v269.103z" opacity=".25"/><path fill-opacity=".25" d="M179.437-448.81h269.76v583.055h-269.76z"/><path d="M179.437-448.81l134.88 134.83V-.586l134.88 134.832V-448.81h-269.76z" opacity=".25"/><g><path fill-opacity=".25" d="M-135.28-134.857h269.758v269.102h-269.76z"/><path d="M134.477 134.245L-135.28-134.857h269.757v269.102z" opacity=".25"/></g><g><path fill-opacity=".25" d="M179.437 496.19h269.76v583.055h-269.76z"/><path d="M179.437 496.19l134.88 134.83v313.393l134.88 134.832V496.19h-269.76z" opacity=".25"/><path fill-opacity=".25" d="M-450 496.19h584.477v269.102H-450z"/><path d="M134.477 765.292L-.683 630.742H-314.84L-450 496.19h584.477v269.102z" opacity=".25"/><g><path fill-opacity=".25" d="M-135.28 810.143h269.758v269.102h-269.76z"/><path d="M134.477 1079.245L-135.28 810.143h269.757v269.102z" opacity=".25"/></g></g><g><path fill-opacity=".25" d="M809.72 179.095h584.476v269.102H809.72z"/><path d="M1394.196 448.198l-135.16-134.55H944.88L809.72 179.094h584.476v269.103z" opacity=".25"/><path fill-opacity=".25" d="M495-134.857h269.76v583.055H495z"/><path d="M495-134.857L629.88-.027v313.394l134.88 134.83v-583.054H495z" opacity=".25"/><g><path fill-opacity=".25" d="M809.72-134.857h269.758v269.102h-269.76z"/><path d="M1079.477 134.245L809.72-134.857h269.757v269.102z" opacity=".25"/></g></g><g><path fill-opacity=".25" d="M495 810.143h269.76v583.055H495z"/><path d="M495 810.143l134.88 134.83v313.394l134.88 134.83V810.144H495z" opacity=".25"/><path fill-opacity=".25" d="M495 496.19h584.477v269.102H495z"/><path d="M1079.477 765.292l-135.16-134.55H630.16L495 496.19h584.477v269.102z" opacity=".25"/><g><path fill-opacity=".25" d="M809.72 810.143h269.758v269.102h-269.76z"/><path d="M1079.477 1079.245L809.72 810.143h269.757v269.102z" opacity=".25"/></g></g></g></svg>