<svg width="945" height="945" xmlns="http://www.w3.org/2000/svg"><title>header</title><desc>Created with Sketch.</desc><g fill="none" fill-rule="evenodd"><g fill="#fff"><g><g id="Group-3"><g id="Rectangle-path-+-Shape"><path id="Rectangle-path" fill-opacity=".25" d="M-135.28 179.095h584.476v269.102H-135.28z"/><path d="M449.196 448.197l-135.16-134.55H-.12l-135.16-134.552h584.476v269.102z" id="Shape" opacity=".25"/></g><g id="Rectangle-path-+-Shape"><path id="Rectangle-path" fill-opacity=".25" d="M179.437-448.81h269.76v583.055h-269.76z"/><path d="M179.437-448.81l134.88 134.83V-.585l134.88 134.83V-448.81h-269.76z" id="Shape" opacity=".25"/></g><g id="Rectangle-path-+-Shape"><path id="Rectangle-path" fill-opacity=".25" d="M-135.28-134.857h269.758v269.102h-269.76z"/><path d="M134.478 134.245l-269.76-269.102h269.76v269.102z" id="Shape" opacity=".25"/></g></g><g id="Group-3"><g id="Rectangle-path-+-Shape"><path id="Rectangle-path" fill-opacity=".25" d="M179.437 496.19h269.76v583.055h-269.76z"/><path d="M179.437 496.19l134.88 134.83v313.394l134.88 134.83V496.19h-269.76z" id="Shape" opacity=".25"/></g><g id="Rectangle-path-+-Shape"><path id="Rectangle-path" fill-opacity=".25" d="M-450 496.19h584.477v269.102H-450z"/><path d="M134.477 765.292L-.683 630.742H-314.84L-450 496.19h584.477v269.102z" id="Shape" opacity=".25"/></g><g id="Rectangle-path-+-Shape"><path id="Rectangle-path" fill-opacity=".25" d="M-135.28 810.143h269.758v269.102h-269.76z"/><path d="M134.478 1079.245l-269.76-269.102h269.76v269.102z" id="Shape" opacity=".25"/></g></g><g id="Group-3"><g id="Rectangle-path-+-Shape"><path id="Rectangle-path" fill-opacity=".25" d="M809.72 179.095h584.476v269.102H809.72z"/><path d="M1394.196 448.197l-135.16-134.55H944.88L809.72 179.094h584.476v269.102z" id="Shape" opacity=".25"/></g><g id="Rectangle-path-+-Shape"><path id="Rectangle-path" fill-opacity=".25" d="M495-134.857h269.76v583.055H495z"/><path d="M495-134.857L629.88-.027v313.394l134.88 134.83v-583.054H495z" id="Shape" opacity=".25"/></g><g id="Rectangle-path-+-Shape"><path id="Rectangle-path" fill-opacity=".25" d="M809.72-134.857h269.758v269.102h-269.76z"/><path d="M1079.478 134.245l-269.76-269.102h269.76v269.102z" id="Shape" opacity=".25"/></g></g><g><g id="Rectangle-path-+-Shape"><path id="Rectangle-path" fill-opacity=".25" d="M495 810.143h269.76v583.055H495z"/><path d="M495 810.143l134.88 134.83v313.394l134.88 134.83V810.144H495z" id="Shape" opacity=".25"/></g><g id="Rectangle-path-+-Shape"><path id="Rectangle-path" fill-opacity=".25" d="M495 496.19h584.477v269.102H495z"/><path d="M1079.477 765.292l-135.16-134.55H630.16L495 496.19h584.477v269.102z" id="Shape" opacity=".25"/></g><g><path fill-opacity=".25" d="M809.72 810.143h269.758v269.102h-269.76z"/><path d="M1079.478 1079.245l-269.76-269.102h269.76v269.102z" opacity=".25"/></g></g></g></g></g></svg>