<svg width="110" height="20" xmlns="http://www.w3.org/2000/svg"><title>icons</title><desc>Created with Sketch.</desc><g fill="none" fill-rule="evenodd"><g><g id="Group" fill="#fff"><path id="Rectangle-path" d="M37 14h13v6H37zM44 0h6v13h-6zM30 7h6v13h-6zM30 0h13v6H30zM37 7h6v6h-6z"/></g><path id="Rectangle-path" fill="#2C3E50" d="M97 14h13v6H97zM104 0h6v13h-6zM90 7h6v13h-6zM90 0h13v6H90zM97 7h6v6h-6z"/><path id="Rectangle-path" fill="#D35400" d="M67 14h13v6H67zM74 0h6v13h-6zM60 7h6v13h-6zM60 0h13v6H60zM67 7h6v6h-6z"/><g fill="#222"><path d="M7 14h13v6H7zM14 0h6v13h-6zM0 7h6v13H0zM0 0h13v6H0zM7 7h6v6H7z"/></g></g></g></svg>